HIERARCHY
ROOT Hips
{
     OFFSET 1.88212 96.90440 -13.34250
     CHANNELS 6 Xposition Yposition Zposition Zrotation Xrotation Yrotation
     JOINT Spine
     {
          OFFSET 0.00000 11.89050 0.00000
          CHANNELS 3 Zrotation Xrotation Yrotation
          JOINT Spine1
          {
               OFFSET -0.00000 25.65740 0.12766
               CHANNELS 3 Zrotation Xrotation Yrotation
               JOINT HEad
               {
                    OFFSET 0.00000 8.73416 0.01134
                    CHANNELS 3 Zrotation Xrotation Yrotation
                    End Site
                    {
                         OFFSET -0.29000 12.77420 2.51395
                    }
               }
               JOINT LeftShoulder1
               {
                    OFFSET 8.99000 -0.36225 -0.22000
                    CHANNELS 3 Zrotation Xrotation Yrotation
                    JOINT LeftArm
                    {
                         OFFSET 10.28270 -0.00338 0.32212
                         CHANNELS 3 Zrotation Xrotation Yrotation
                         JOINT LeftForeArm
                         {
                              OFFSET 32.76690 0.09914 -1.42434
                              CHANNELS 3 Zrotation Xrotation Yrotation
                              JOINT LeftHand
                              {
                                   OFFSET 27.56430 0.08536 1.02216
                                   CHANNELS 3 Zrotation Xrotation Yrotation
                                   End Site
                                   {
                                        OFFSET 16.74430 -0.60000 1.50291
                                   }
                              }
                         }
                    }
               }
               JOINT RightShoulder
               {
                    OFFSET -8.99000 -0.36225 -0.22000
                    CHANNELS 3 Zrotation Xrotation Yrotation
                    JOINT RightArm
                    {
                         OFFSET -10.28270 -0.00338 0.32212
                         CHANNELS 3 Zrotation Xrotation Yrotation
                         JOINT RightForeArm
                         {
                              OFFSET -32.89710 0.09914 -1.42434
                              CHANNELS 3 Zrotation Xrotation Yrotation
                              JOINT RightHand
                              {
                                   OFFSET -27.49210 0.08536 1.02216
                                   CHANNELS 3 Zrotation Xrotation Yrotation
                                   End Site
                                   {
                                        OFFSET -16.63120 -0.60000 1.50291
                                   }
                              }
                         }
                    }
               }
          }
     }
     JOINT LeftUpLeg
     {
          OFFSET 8.94580 -8.66707 0.10165
          CHANNELS 3 Zrotation Xrotation Yrotation
          JOINT LeftLeg
          {
               OFFSET 0.00000 -44.42270 1.37270
               CHANNELS 3 Zrotation Xrotation Yrotation
               JOINT LeftFoot
               {
                    OFFSET -0.25355 -42.09240 -1.46059
                    CHANNELS 3 Zrotation Xrotation Yrotation
                    JOINT LeftToes
                    {
                         OFFSET -0.04000 -4.41509 8.49910
                         CHANNELS 3 Zrotation Xrotation Yrotation
                         End Site
                         {
                              OFFSET 0.08000 -0.04745 9.77979
                         }
                    }
               }
          }
     }
     JOINT RightUpLeg
     {
          OFFSET -8.94580 -8.66707 0.10165
          CHANNELS 3 Zrotation Xrotation Yrotation
          JOINT RightLeg
          {
               OFFSET 0.00000 -44.42270 1.37270
               CHANNELS 3 Zrotation Xrotation Yrotation
               JOINT RightFoot
               {
                    OFFSET 0.25355 -42.09240 -1.46059
                    CHANNELS 3 Zrotation Xrotation Yrotation
                    JOINT RightToes
                    {
                         OFFSET 0.04000 -4.41509 8.49910
                         CHANNELS 3 Zrotation Xrotation Yrotation
                         End Site
                         {
                              OFFSET -0.08000 -0.13745 9.77979
                         }
                    }
               }
          }
     }
}
MOTION
Frames: 15
Frame Time: 0.01667
125.96255 79.41339 -298.27661 -7.71455 -15.01782 -36.34837 13.48583 11.03123 3.86469 0.00112 0.00416 -0.00781 -14.14327 29.78711 20.16805 -2.22540 6.83046 0.46243 -43.55497 -59.00151 2.70081 -42.98003 55.64251 -105.65406 4.78481 11.30466 -1.05875 24.90725 9.38737 6.66019 34.55982 -1.29027 63.22203 15.27140 33.78922 102.94003 -4.84505 9.41877 -0.01318 14.74368 -27.52292 3.92882 2.53985 52.88470 0.00894 -25.79038 -0.00363 -0.00570 7.16712 -16.03449 -6.56757 -18.48908 8.81024 10.93229 -5.22460 55.93652 5.40386 65.67128 0.00122 -0.02250 -77.86096 -72.38861 -12.98936 
126.22133 79.55048 -298.04178 -7.74544 -14.54827 -36.31111 10.54910 12.64970 4.03935 -0.06827 0.07325 -0.04976 -12.83645 27.95427 20.09751 -0.36248 5.04190 0.13701 -39.94610 -61.44137 -0.20786 -39.98970 53.86181 -104.67180 6.56731 7.49405 -1.40997 17.27708 8.17047 1.23472 40.92292 0.72516 67.62333 16.51924 32.82894 105.99222 -4.64975 9.77488 -0.27668 15.26484 -26.66451 2.32211 1.99798 50.39053 0.59013 -25.46042 0.00837 0.00392 5.99936 -14.84205 -5.80030 -19.25588 8.72124 10.73516 -3.69347 54.98131 4.32097 67.98786 -0.00466 -0.02224 -76.38796 -71.56867 -8.88204 
126.39363 79.78625 -297.83475 -7.67323 -13.88294 -36.39443 6.65417 14.59870 3.44234 -0.05366 0.05304 -0.07061 -11.09624 25.38762 21.22762 1.95909 2.80432 0.89828 -34.97152 -65.10587 -4.21624 -35.73246 51.41889 -102.27631 4.44175 18.31340 1.18148 20.51347 6.09616 3.40032 35.61205 -2.42661 63.73658 18.59680 31.58325 110.16418 -4.93783 10.26965 -0.30252 15.53757 -25.12855 0.02211 2.24920 46.35259 0.45630 -26.30033 -0.01487 0.01153 5.47587 -13.30686 -3.84694 -19.87429 8.55956 10.53919 -2.28614 53.67008 3.31879 70.19661 -0.00955 -0.02100 -75.27608 -70.17728 -5.43179 
126.47900 80.12843 -297.71130 -6.78576 -11.35567 -37.33820 2.41971 14.86472 2.89757 -0.03141 0.02983 -0.08072 -9.23376 22.38721 23.75169 -1.78434 3.30146 -5.89943 1.35683 -73.39604 16.60852 -30.38243 48.12067 -99.08821 9.22189 -3.34116 -2.21180 23.74021 4.35790 6.31037 32.45683 -3.93156 61.73403 17.87081 32.35916 108.77941 3.43969 13.62018 -13.82132 16.73599 -25.42716 -0.55309 1.73211 43.09632 1.26051 -26.48783 -0.00845 -0.00536 5.16531 -12.31708 -2.16177 -19.84957 6.22715 10.55169 -1.04026 52.14519 2.39211 72.30613 -0.01413 -0.01975 -74.80982 -68.23518 -2.94031 
126.52084 80.57452 -297.69324 -5.91707 -9.11557 -38.27736 -1.79125 15.31478 1.15600 -0.01451 0.01549 -0.08738 -7.53987 19.28928 27.30513 1.29638 0.72629 -2.45351 4.35675 -73.16418 9.22265 -22.15423 42.79510 -95.64769 5.92578 12.79353 1.74315 26.66271 3.15392 9.52001 30.67197 -4.79097 60.96698 17.76544 32.74613 108.32483 -7.98295 9.22086 4.38787 17.64756 -25.72573 -1.11411 1.16014 40.31843 2.28586 -26.48580 -0.00380 -0.00515 5.00882 -11.51079 -0.66400 -19.74429 4.09206 10.49850 0.00897 50.47771 1.55723 74.37241 -0.01875 -0.01907 -75.01347 -65.78825 -1.44770 
126.57549 81.11213 -297.73828 -5.06988 -7.16227 -39.20600 -5.34310 15.60291 -0.56101 0.03316 -0.01812 0.01685 -6.13380 16.72084 30.41317 3.69757 -1.15990 0.04770 4.65536 -69.25774 0.17308 -11.98319 34.74385 -90.75703 8.67098 -11.98450 0.77090 23.47203 0.44179 2.15593 35.76732 1.12075 68.51055 17.65415 33.05148 108.02822 8.78670 16.47332 -22.94199 18.37984 -26.01981 -1.61084 0.80567 37.84113 3.25843 -26.51209 -0.00348 -0.00322 4.94869 -10.69462 0.70256 -19.61167 2.13876 10.39267 0.82333 48.70320 0.84780 76.46561 -0.02329 -0.01932 -75.68552 -62.89287 -0.78371 
126.69225 81.72254 -297.77917 -4.30040 -5.44283 -40.12177 -8.27105 15.73457 -2.24973 0.03174 -0.01905 0.01592 -5.00987 14.53166 33.34472 5.51030 -2.50956 1.93852 5.79047 -62.31847 -6.83530 -2.54801 25.07878 -81.67233 5.74248 7.17757 -0.12561 26.41332 -0.00136 5.15821 32.19103 -3.14248 65.81363 19.87082 33.29906 110.68899 -6.42915 16.12177 -4.16462 19.03541 -26.28080 -2.02863 0.70553 35.58446 4.12341 -26.60929 -0.00391 -0.00185 4.92696 -9.81137 1.93376 -19.45005 0.39371 10.23826 1.39722 46.84515 0.28460 78.64630 -0.02686 -0.02001 -71.42600 -48.04187 -8.41754 
126.90068 82.38103 -297.75229 -3.62141 -3.91857 -41.02099 -10.63906 15.72674 -3.87868 0.02805 -0.01737 0.01432 -4.16181 12.68142 36.00266 6.92996 -3.41734 3.45353 7.95481 -53.22938 -11.91853 3.54346 16.25537 -72.29736 3.51274 -11.98213 1.31903 28.87524 -0.08038 7.60255 29.78965 -5.52978 64.10070 20.61357 33.86136 112.07614 3.10706 15.46965 -14.74940 19.62702 -26.48056 -2.37050 0.79794 33.52770 4.91355 -26.73310 -0.00373 -0.00128 4.88525 -8.88026 2.99469 -19.30090 -1.10829 10.03505 1.72933 44.90184 -0.13153 80.92738 -0.03001 -0.02185 -75.62634 -51.47520 -4.06737 
127.20966 83.06161 -297.61407 -3.04158 -2.55277 -41.90541 -12.50073 15.58254 -5.40455 0.02545 -0.01622 0.01333 -3.56563 11.11655 38.38027 8.01478 -3.97269 4.87680 10.75199 -42.76472 -15.82086 8.02196 7.31603 -62.97756 5.84225 14.20615 4.44230 30.72014 0.08673 9.53930 28.23734 -6.95602 63.00580 20.75928 34.32292 113.08264 -6.20663 14.36654 -3.45884 20.14880 -26.59842 -2.64908 0.99518 31.68064 5.67982 -26.81727 -0.00289 -0.00145 4.76842 -7.95569 3.84872 -19.19423 -2.33333 9.78327 1.83976 42.85403 -0.41877 83.30002 -0.03250 -0.02422 -68.57550 -34.95168 -13.68452 
127.62488 83.75174 -297.34775 -2.56134 -1.30961 -42.79144 -13.90640 15.29905 -6.76612 0.02350 -0.01409 0.01411 -3.18543 9.79162 40.46143 8.90532 -4.25049 6.31313 13.74332 -31.49072 -19.20378 12.01355 -2.09491 -53.55466 1.24634 -2.77584 7.25562 32.16062 0.44929 11.18473 27.12396 -7.78047 62.11917 20.38770 34.82609 113.71231 -0.63452 13.95739 -9.49676 20.59903 -26.63400 -2.86538 1.21696 30.06008 6.46435 -26.80446 -0.00172 -0.00200 4.53656 -7.09284 4.47383 -19.15847 -3.14982 9.49394 1.78929 39.34316 -2.19114 85.66772 -0.04137 -0.06810 -73.12020 -37.29377 -8.96713 
128.14326 84.44064 -296.94839 -2.16936 -0.17058 -43.69375 -14.91200 14.87590 -7.91014 0.02184 -0.01168 0.01510 -2.98492 8.68074 42.23679 9.69635 -4.29706 7.75879 16.35278 -19.75320 -22.56455 16.57037 -11.91817 -43.83942 4.55633 7.77794 3.02951 33.17584 0.93937 12.56348 26.27804 -8.31336 61.27217 19.90492 35.17535 114.34042 -6.35046 12.77669 -2.60441 20.97345 -26.59813 -3.01861 1.40014 28.67652 7.29080 -26.66064 -0.00065 -0.00251 4.17680 -6.33788 4.86894 -19.19012 -3.56257 9.18210 1.59376 36.24556 -3.53672 88.02121 -0.04627 -0.05118 -62.01348 -17.88917 -13.19224 
128.74463 85.12328 -296.40012 -1.85129 0.86722 -44.61304 -15.56727 14.33699 -8.81236 0.02038 -0.00794 0.01646 -2.93345 7.75572 43.70789 10.32841 -4.16579 8.90768 18.22173 -12.08621 -24.22727 15.83202 -21.74318 -36.22169 2.62134 2.68927 1.50954 33.89551 1.53121 13.76867 25.56985 -8.60683 60.34656 19.25081 35.48394 114.84784 -3.21530 12.45700 -5.92717 21.26119 -26.49347 -3.11826 1.50343 27.52746 8.16642 -26.37489 0.00000 -0.00273 3.70772 -5.73434 5.04731 -19.24051 -3.74138 8.85980 1.43257 33.48024 -4.94301 68.72038 0.18430 0.44180 -46.32742 -20.91981 -7.57699 
129.39839 85.79935 -295.69339 -1.58738 1.79941 -45.54456 -15.91112 13.70635 -9.46595 0.01931 -0.00471 0.01730 -3.01826 7.00371 44.88383 10.92690 -3.87104 9.74626 15.67766 -10.43124 -23.74473 11.75940 -27.98548 -37.66502 7.39639 15.41027 -3.57646 34.30258 2.18362 14.78264 24.99681 -8.75854 59.35423 18.60136 35.66133 115.39084 -6.78159 11.47733 -1.58418 21.45322 -26.32148 -3.16747 1.50373 26.60309 9.08402 -25.95528 0.00015 -0.00253 3.17244 -5.31718 5.03166 -19.29081 -3.76159 8.53632 1.27247 30.75125 -5.90208 49.51128 -0.01965 0.47714 -24.19707 -14.72363 -9.04378 
130.07889 86.46814 -294.83374 -1.35747 2.61974 -46.47858 -16.00179 13.01078 -9.86513 0.01692 -0.00230 0.01799 -3.20607 6.42335 45.76768 11.20763 -3.48389 10.39104 11.86608 -13.71840 -21.34402 2.41305 -29.53607 -47.74120 1.23452 2.02440 -4.35661 34.43865 2.86866 15.64197 24.59380 -8.79857 58.29949 17.91898 35.79535 115.86141 -5.06802 11.26585 -3.30612 21.54595 -26.09166 -3.16199 1.39346 25.88749 10.02445 -25.42224 -0.00006 -0.00191 2.62332 -5.09842 4.85173 -19.30706 -3.64805 8.22172 1.20219 27.86172 -7.49813 40.17105 -0.13650 0.25616 -14.75475 -12.58612 -6.51101 
130.76779 87.11985 -293.84598 -1.14455 3.32422 -47.39976 -15.89701 12.28031 -10.01531 0.01432 -0.00054 0.01803 -3.46585 6.01913 46.36281 11.03258 -3.06420 10.87430 8.14318 -20.46032 -17.83712 -4.79098 -24.62796 -56.96664 8.88447 23.55980 -3.92237 34.28343 3.54324 16.32092 24.41979 -8.81275 57.25320 17.34446 35.84546 116.33170 -7.25618 10.55490 -0.47899 21.54579 -25.82587 -3.09154 1.17714 25.35833 10.95881 -24.80399 -0.00047 -0.00102 2.10591 -5.06002 4.54267 -19.28566 -3.38227 7.92076 1.13549 24.80865 -9.85221 28.53630 -0.25914 0.31142 -1.73932 -7.52772 -6.10816 
